<svg xmlns="http://www.w3.org/2000/svg" viewBox="0 0 551.59 510.64"><defs><style>.cls-1{fill:none;stroke-width:10px;}.cls-1,.cls-3{stroke:#231f20;stroke-miterlimit:10;}.cls-2{fill:#231f20;}.cls-3{fill:#333;}</style></defs><g id="PATTERN_2" data-name="PATTERN 2"><circle class="cls-1" cx="282.74" cy="263.79" r="120.44"/><path class="cls-2" d="M364.26,409.62c-101.3,0-183.7-82.41-183.7-183.71S263,42.21,364.26,42.21,548,124.62,548,225.91,465.55,409.62,364.26,409.62Zm0-352.77C271,56.85,195.2,132.69,195.2,225.91S271,395,364.26,395s169.06-75.84,169.06-169.06S457.48,56.85,364.26,56.85Z" transform="translate(-23.26 -42.21)"/><path class="cls-2" d="M242.74,549.23C141.45,549.23,59,466.82,59,365.52s82.41-183.7,183.7-183.7,183.7,82.41,183.7,183.7S344,549.23,242.74,549.23Zm0-352.77c-93.22,0-169.06,75.84-169.06,169.06s75.84,169.06,169.06,169.06S411.8,458.74,411.8,365.52,336,196.46,242.74,196.46Z" transform="translate(-23.26 -42.21)"/></g><g id="ONE_CANDY_DEBOSSED" data-name="ONE CANDY DEBOSSED"><path class="cls-3" d="M574.35,284.51c0,59.87-32.18,114-84,152.51a228.12,228.12,0,0,1-406.95-20.6c-37.36-36.21-59.69-82.05-59.69-131.91C23.76,167.36,147,72.39,299.06,72.39S574.35,167.36,574.35,284.51Z" transform="translate(-23.26 -42.21)"/></g></svg>