<svg xmlns="http://www.w3.org/2000/svg" viewBox="0 0 562.72 574.96"><defs><style>.cls-1{fill:#231f20;}.cls-2{fill:#333;stroke:#231f20;stroke-miterlimit:10;}</style></defs><g id="PATTERN_3" data-name="PATTERN 3"><polygon class="cls-1" points="538.09 201.85 434.41 186.35 349.36 247.64 347.65 161.95 257.34 122.89 359.97 85.43 389.2 0 454.33 62.54 562.72 48.81 500.34 124.91 538.09 201.85"/><polygon class="cls-1" points="180.05 553.62 128.48 462.35 27.84 433 94.35 378.94 69.58 283.7 162.25 341.57 247.59 312.06 238.35 401.88 315.86 478.88 217.49 476.52 180.05 553.62"/><polygon class="cls-1" points="317.51 418.93 297.5 326.16 218.41 273.7 290.44 244.87 294.67 155.89 359.19 230.84 440.9 228.3 408.75 303.46 455.02 390.87 370.62 362.36 317.51 418.93"/><polygon class="cls-1" points="0 142.12 93.42 136.56 98.15 43.1 182.69 145.65 288.91 171.52 247.75 240.46 308.66 349.91 198.67 289.97 130.11 331.74 103.29 225.76 0 142.12"/><polygon class="cls-1" points="425.21 574.96 405.2 482.19 326.11 429.74 398.14 400.9 402.36 311.92 466.89 386.88 548.6 384.33 516.44 459.49 562.72 546.9 478.32 518.39 425.21 574.96"/></g><g id="ONE_CANDY_DEBOSSED" data-name="ONE CANDY DEBOSSED"><path class="cls-2" d="M574.35,284.51c0,59.87-32.18,114-84,152.51a228.12,228.12,0,0,1-406.95-20.6c-37.36-36.21-59.69-82.05-59.69-131.91C23.76,167.36,147,72.39,299.06,72.39S574.35,167.36,574.35,284.51Z" transform="translate(-20.31 -37.04)"/></g></svg>