<?xml version="1.0" standalone="no"?>
<!DOCTYPE svg PUBLIC "-//W3C//DTD SVG 20010904//EN"
 "http://www.w3.org/TR/2001/REC-SVG-20010904/DTD/svg10.dtd">
<svg version="1.0" xmlns="http://www.w3.org/2000/svg"
 width="640.000000pt" height="640.000000pt" viewBox="0 0 640.000000 640.000000"
 preserveAspectRatio="xMidYMid meet">

<g transform="translate(0.000000,640.000000) scale(0.100000,-0.100000)"
fill="#000000" stroke="none">
<path d="M3092 5507 c-108 -114 -257 -1066 -222 -1409 l12 -114 -46 -190 c-97
-404 -136 -603 -181 -914 -15 -102 -48 -306 -75 -455 -62 -345 -76 -425 -95
-560 -33 -239 -52 -986 -26 -1060 22 -65 272 -589 284 -598 7 -4 197 -6 422
-3 226 3 431 5 458 6 l47 0 125 257 c122 249 152 321 173 412 9 41 2 481 -13
784 -10 215 -39 390 -155 937 -38 179 -83 399 -100 490 -67 351 -170 783 -385
1620 -51 201 -75 312 -79 376 -13 190 -53 393 -83 426 -21 24 -35 23 -61 -5z
m18 -294 c0 -6 -61 -383 -71 -441 -3 -19 -17 60 -18 104 -2 91 56 344 79 344
6 0 10 -3 10 -7z"/>
</g>
</svg>
